<?xml version="1.0" encoding="UTF-8" standalone="no"?>
<!-- Created with Inkscape (http://www.inkscape.org/) -->

<svg
   xmlns:dc="http://purl.org/dc/elements/1.1/"
   xmlns:cc="http://creativecommons.org/ns#"
   xmlns:rdf="http://www.w3.org/1999/02/22-rdf-syntax-ns#"
   xmlns:svg="http://www.w3.org/2000/svg"
   xmlns="http://www.w3.org/2000/svg"
   xmlns:sodipodi="http://sodipodi.sourceforge.net/DTD/sodipodi-0.dtd"
   xmlns:inkscape="http://www.inkscape.org/namespaces/inkscape"
   width="256px"
   height="256px"
   viewBox="0 0 256 256"
   version="1.1"
   id="SVGRoot"
   inkscape:version="0.92.5 (2060ec1f9f, 2020-04-08)"
   sodipodi:docname="drawing.svg"
   inkscape:export-filename="/home/mohit/Desktop/drawing-color.png"
   inkscape:export-xdpi="199.67999"
   inkscape:export-ydpi="199.67999">
  <defs
     id="defs1681" />
  <sodipodi:namedview
     id="base"
     pagecolor="#ffffff"
     bordercolor="#666666"
     borderopacity="1.0"
     inkscape:pageopacity="0.0"
     inkscape:pageshadow="2"
     inkscape:zoom="2"
     inkscape:cx="54.100072"
     inkscape:cy="98.586832"
     inkscape:document-units="px"
     inkscape:current-layer="layer1"
     showgrid="false"
     inkscape:window-width="1920"
     inkscape:window-height="1016"
     inkscape:window-x="0"
     inkscape:window-y="27"
     inkscape:window-maximized="1"
     inkscape:grid-bbox="true" />
  <metadata
     id="metadata1684">
    <rdf:RDF>
      <cc:Work
         rdf:about="">
        <dc:format>image/svg+xml</dc:format>
        <dc:type
           rdf:resource="http://purl.org/dc/dcmitype/StillImage" />
        <dc:title></dc:title>
      </cc:Work>
    </rdf:RDF>
  </metadata>
  <g
     inkscape:label="Layer 1"
     inkscape:groupmode="layer"
     id="layer1">
    <g
       transform="matrix(15.92386,0,0,16.691077,1.0165584,-4.8433568)"
       style="display:inline"
       id="g1265"
       inkscape:export-xdpi="199.67999"
       inkscape:export-ydpi="199.67999">
      <ellipse
         style="display:inline;opacity:1;fill:none;stroke:#000000;stroke-width:0.62031323;stroke-miterlimit:4;stroke-dasharray:none;stroke-opacity:1"
         ry="4.911715"
         rx="3.8728826"
         cy="8.5276432"
         cx="7.9566603"
         id="path90" />
      <path
         d="m 11.557332,6.011463 a 6.2482691,2.8164232 0 0 1 -7.0505564,0.06358"
         sodipodi:open="true"
         sodipodi:end="2.1503948"
         sodipodi:start="0.95119157"
         sodipodi:ry="2.8164232"
         sodipodi:rx="6.2482691"
         sodipodi:cy="3.7185903"
         sodipodi:cx="7.9288778"
         sodipodi:type="arc"
         id="path905"
         style="display:inline;opacity:1;fill:none;stroke:#000000;stroke-width:1.03393042;stroke-miterlimit:4;stroke-dasharray:none;stroke-opacity:1" />
      <path
         d="M 11.542199,8.3859878 A 6.3532882,2.875555 0 0 1 4.3731395,8.4509022"
         sodipodi:open="true"
         sodipodi:end="2.1503948"
         sodipodi:start="0.95119157"
         sodipodi:ry="2.875555"
         sodipodi:rx="6.3532882"
         sodipodi:cy="6.0449753"
         sodipodi:cx="7.8527594"
         sodipodi:type="arc"
         id="path905-3"
         style="display:inline;opacity:1;fill:none;stroke:#000000;stroke-width:1.05347109;stroke-linecap:round;stroke-miterlimit:4;stroke-dasharray:none;stroke-opacity:1;paint-order:normal" />
      <path
         inkscape:connector-curvature="0"
         id="path971"
         d="m 4.7838315,10.881975 c 0,0 3.0234176,1.098277 6.3481685,0.08697"
         style="display:inline;opacity:1;fill:none;stroke:#000000;stroke-width:0.98319328;stroke-linecap:round;stroke-linejoin:miter;stroke-miterlimit:4;stroke-dasharray:none;stroke-opacity:1" />
      <path
         inkscape:connector-curvature="0"
         id="path994"
         d="m 6.0226983,4.0226017 c 0,0 0,-1.2123612 -1.4911064,-2.97224"
         style="display:inline;opacity:1;fill:none;stroke:#000000;stroke-width:0.92361379;stroke-linecap:round;stroke-linejoin:miter;stroke-miterlimit:4;stroke-dasharray:none;stroke-opacity:1" />
      <path
         inkscape:connector-curvature="0"
         id="path994-5"
         d="m 9.5451575,3.7676253 c 0,0 0,-1.2123612 1.3157075,-2.97224"
         style="display:inline;opacity:1;fill:none;stroke:#000000;stroke-width:0.86759245;stroke-linecap:round;stroke-linejoin:miter;stroke-miterlimit:4;stroke-dasharray:none;stroke-opacity:1" />
      <path
         inkscape:connector-curvature="0"
         id="path1038"
         d="m 7.9254063,15.570729 c 0,0 0.59375,-0.390624 0.875,-1.8125 0.281248,-1.421875 -0.875,-0.281248 -0.875,-0.281248 z"
         style="display:inline;opacity:1;fill:none;stroke:#000000;stroke-width:0;stroke-linecap:butt;stroke-linejoin:miter;stroke-miterlimit:4;stroke-dasharray:none;stroke-opacity:1" />
      <path
         inkscape:connector-curvature="0"
         id="path1040"
         d="m 7.9254063,15.570729 c 0,0 0.390624,-0.203124 0.8906248,-1.859375 0.5,-1.65625 0.03124,-0.125 0.03124,-0.125 L 7.9254063,13.476981 Z"
         style="display:inline;opacity:1;fill:#000000;fill-opacity:1;stroke:#000000;stroke-width:0.04;stroke-linecap:butt;stroke-linejoin:miter;stroke-miterlimit:4;stroke-dasharray:none;stroke-opacity:1" />
      <path
         inkscape:connector-curvature="0"
         id="path1040-3"
         d="m 7.9254063,15.570729 c 0,0 -0.390624,-0.203124 -0.8906248,-1.859375 -0.5,-1.65625 -0.03124,-0.125 -0.03124,-0.125 l 0.9218648,-0.109372 z"
         style="display:inline;opacity:1;fill:#000000;fill-opacity:1;stroke:#000000;stroke-width:0.04;stroke-linecap:butt;stroke-linejoin:miter;stroke-miterlimit:4;stroke-dasharray:none;stroke-opacity:1" />
      <ellipse
         id="ellipse1156"
         cx="7.9566603"
         cy="8.5276432"
         rx="3.8728826"
         ry="4.911715"
         style="display:inline;opacity:1;fill:none;stroke:#000000;stroke-width:0.62031323;stroke-miterlimit:4;stroke-dasharray:none;stroke-opacity:1" />
      <path
         style="display:inline;opacity:1;fill:none;stroke:#000000;stroke-width:1.03393042;stroke-miterlimit:4;stroke-dasharray:none;stroke-opacity:1"
         id="path1158"
         sodipodi:type="arc"
         sodipodi:cx="7.9288778"
         sodipodi:cy="3.7185903"
         sodipodi:rx="6.2482691"
         sodipodi:ry="2.8164232"
         sodipodi:start="0.95119157"
         sodipodi:end="2.1503948"
         sodipodi:open="true"
         d="m 11.557332,6.011463 a 6.2482691,2.8164232 0 0 1 -7.0505564,0.06358" />
      <path
         style="display:inline;opacity:1;fill:none;stroke:#000000;stroke-width:1.05347109;stroke-linecap:round;stroke-miterlimit:4;stroke-dasharray:none;stroke-opacity:1;paint-order:normal"
         id="path1160"
         sodipodi:type="arc"
         sodipodi:cx="7.8527594"
         sodipodi:cy="6.0449753"
         sodipodi:rx="6.3532882"
         sodipodi:ry="2.875555"
         sodipodi:start="0.95119157"
         sodipodi:end="2.1503948"
         sodipodi:open="true"
         d="M 11.542199,8.3859878 A 6.3532882,2.875555 0 0 1 4.3731395,8.4509022" />
      <path
         style="display:inline;opacity:1;fill:none;stroke:#000000;stroke-width:0.98319328;stroke-linecap:round;stroke-linejoin:miter;stroke-miterlimit:4;stroke-dasharray:none;stroke-opacity:1"
         d="m 4.7838315,10.881975 c 0,0 3.0234176,1.098277 6.3481685,0.08697"
         id="path1162"
         inkscape:connector-curvature="0" />
      <path
         style="display:inline;opacity:1;fill:none;stroke:#000000;stroke-width:0.92361379;stroke-linecap:round;stroke-linejoin:miter;stroke-miterlimit:4;stroke-dasharray:none;stroke-opacity:1"
         d="m 6.0226983,4.0226017 c 0,0 0,-1.2123612 -1.4911064,-2.97224"
         id="path1164"
         inkscape:connector-curvature="0" />
      <path
         style="display:inline;opacity:1;fill:none;stroke:#000000;stroke-width:0.86759245;stroke-linecap:round;stroke-linejoin:miter;stroke-miterlimit:4;stroke-dasharray:none;stroke-opacity:1"
         d="m 9.5451575,3.7676253 c 0,0 0,-1.2123612 1.3157075,-2.97224"
         id="path1166"
         inkscape:connector-curvature="0" />
      <path
         style="display:inline;opacity:1;fill:none;stroke:#000000;stroke-width:0;stroke-linecap:butt;stroke-linejoin:miter;stroke-miterlimit:4;stroke-dasharray:none;stroke-opacity:1"
         d="m 7.9254063,15.570729 c 0,0 0.59375,-0.390624 0.875,-1.8125 0.281248,-1.421875 -0.875,-0.281248 -0.875,-0.281248 z"
         id="path1168"
         inkscape:connector-curvature="0" />
      <path
         style="display:inline;opacity:1;fill:#000000;fill-opacity:1;stroke:#000000;stroke-width:0.04;stroke-linecap:butt;stroke-linejoin:miter;stroke-miterlimit:4;stroke-dasharray:none;stroke-opacity:1"
         d="m 7.9254063,15.570729 c 0,0 0.390624,-0.203124 0.8906248,-1.859375 0.5,-1.65625 0.03124,-0.125 0.03124,-0.125 L 7.9254063,13.476981 Z"
         id="path1170"
         inkscape:connector-curvature="0" />
      <path
         style="display:inline;opacity:1;fill:#000000;fill-opacity:1;stroke:#000000;stroke-width:0.04;stroke-linecap:butt;stroke-linejoin:miter;stroke-miterlimit:4;stroke-dasharray:none;stroke-opacity:1"
         d="m 7.9254063,15.570729 c 0,0 -0.390624,-0.203124 -0.8906248,-1.859375 -0.5,-1.65625 -0.03124,-0.125 -0.03124,-0.125 l 0.9218648,-0.109372 z"
         id="path1172"
         inkscape:connector-curvature="0" />
    </g>
    <path
       style="display:inline;opacity:1;fill:#79ffff;fill-opacity:1;stroke:#79ffff;stroke-width:6.52424049;stroke-linecap:round;stroke-miterlimit:4;stroke-dasharray:none;stroke-opacity:1;paint-order:normal"
       id="path1068"
       sodipodi:type="arc"
       sodipodi:cx="-29.693388"
       sodipodi:cy="141.43369"
       sodipodi:rx="44.879349"
       sodipodi:ry="53.894619"
       sodipodi:start="2.1498831"
       sodipodi:end="2.1487132"
       d="M -54.254053,186.54147 A 44.879349,53.894619 0 0 1 -67.262914,111.95252 44.879349,53.894619 0 0 1 -5.1546996,96.308651 44.879349,53.894619 0 0 1 7.8904918,170.88846 44.879349,53.894619 0 0 1 -54.210092,186.57595"
       sodipodi:open="true"
       transform="matrix(0.82172658,-0.56988194,0.53378022,0.84562325,0,0)"
       inkscape:export-xdpi="199.67999"
       inkscape:export-ydpi="199.67999" />
    <path
       style="display:inline;opacity:1;fill:#79ffff;fill-opacity:1;stroke:#79ffff;stroke-width:6.52424049;stroke-linecap:round;stroke-miterlimit:4;stroke-dasharray:none;stroke-opacity:1;paint-order:normal"
       id="path1068-5"
       sodipodi:type="arc"
       sodipodi:cx="-247.47824"
       sodipodi:cy="-4.4637146"
       sodipodi:rx="44.879349"
       sodipodi:ry="53.894619"
       sodipodi:start="2.1498831"
       sodipodi:end="2.1487132"
       d="m -272.03891,40.644075 a 44.879349,53.894619 0 0 1 -13.00886,-74.588955 44.879349,53.894619 0 0 1 62.10822,-15.643869 44.879349,53.894619 0 0 1 13.04519,74.579804 44.879349,53.894619 0 0 1 -62.10058,15.687495"
       sodipodi:open="true"
       transform="matrix(-0.82172658,-0.56988194,-0.53378022,0.84562325,0,0)"
       inkscape:export-xdpi="199.67999"
       inkscape:export-ydpi="199.67999" />
    <path
       style="opacity:1;fill:#ffff00;fill-opacity:0.78743956;stroke:#000000;stroke-width:0.05;stroke-linecap:round;stroke-miterlimit:4;stroke-dasharray:none;stroke-opacity:1;paint-order:normal"
       d="m 119.10007,134.88075 c -5.11015,-0.21972 -17.16476,-1.19155 -18.06335,-1.45625 -0.5048,-0.1487 -0.94055,-1.04037 -1.148642,-2.35046 -0.567213,-3.57105 -3.694531,-12.28637 -6.007333,-16.74145 l -2.198039,-4.23402 2.083683,0.33464 c 21.373381,3.43259 46.976811,3.4287 67.016591,-0.0102 2.4381,-0.41838 4.52643,-0.66717 4.64074,-0.55286 0.11432,0.11432 -0.68728,1.86951 -1.78131,3.90043 -2.41218,4.47786 -5.20787,11.6536 -6.07408,15.59041 -0.35068,1.5938 -0.80856,3.00348 -1.01752,3.13262 -1.39871,0.86445 -26.80006,2.91408 -32.45074,2.61844 -0.9625,-0.0504 -3.2125,-0.15444 -5,-0.2313 z"
       id="path1952"
       inkscape:connector-curvature="0" />
    <path
       style="opacity:1;fill:#ffff00;fill-opacity:0.78743956;stroke:#000000;stroke-width:0.05;stroke-linecap:round;stroke-miterlimit:4;stroke-dasharray:none;stroke-opacity:1;paint-order:normal"
       d="M 112.85007,94.90328 C 99.629555,93.546452 84.88758,91.163241 83.925683,90.227319 c -0.533613,-0.519204 3.68426,-6.809628 7.640715,-11.395161 6.050898,-7.012993 14.941142,-13.081414 22.898572,-15.630404 17.08341,-5.472305 34.14903,-0.43196 47.95262,14.162849 3.38643,3.580547 9.88597,12.311742 9.47261,12.725099 -0.40163,0.401632 -13.01431,2.768452 -19.54013,3.666784 -5.85451,0.805921 -10.79097,1.067498 -22.5,1.192246 -8.25,0.08789 -15.9,0.06744 -17,-0.04545 z"
       id="path1954"
       inkscape:connector-curvature="0" />
    <path
       style="opacity:1;fill:#ffff00;fill-opacity:0.78743956;stroke:#000000;stroke-width:0.05;stroke-linecap:round;stroke-miterlimit:4;stroke-dasharray:none;stroke-opacity:1;paint-order:normal"
       d="m 114.60007,176.14645 c -4.55905,-0.46538 -19.086296,-2.80591 -20.295255,-3.26984 -0.601415,-0.23078 -0.512037,-0.65441 0.503765,-2.38775 2.077808,-3.54551 4.263815,-9.61196 5.174932,-14.36111 l 0.866558,-4.5169 2.49284,0.29156 c 1.37106,0.16035 6.9503,0.54541 12.39832,0.85567 9.95301,0.56682 25.99905,0.0789 34.60884,-1.05233 5.88485,-0.77321 5.44639,-1.01909 6.14936,3.44848 0.74979,4.76513 2.50797,10.08253 4.87305,14.73798 0.9663,1.90207 1.6858,3.52942 1.59888,3.61634 -0.35073,0.35073 -11.95365,2.20879 -16.79926,2.6902 -6.07536,0.60357 -25.46149,0.57146 -31.57203,-0.0523 z"
       id="path1956"
       inkscape:connector-curvature="0" />
    <path
       style="opacity:1;fill:#ffff00;fill-opacity:0.78743956;stroke:#000000;stroke-width:0.05;stroke-linecap:round;stroke-miterlimit:4;stroke-dasharray:none;stroke-opacity:1;paint-order:normal"
       d="m 121.35007,213.47735 c -12.72742,-2.02645 -23.908738,-9.31357 -33.325082,-21.71874 -1.337859,-1.7625 -2.358471,-3.27855 -2.268026,-3.369 0.09045,-0.0904 2.623395,0.3922 5.628778,1.07254 22.72078,5.14341 50.1227,5.61628 71.92034,1.24113 2.72581,-0.54712 5.05946,-0.89131 5.1859,-0.76487 0.41564,0.41564 -4.73445,6.49183 -8.72629,10.2955 -7.97391,7.59801 -16.8832,12.05223 -26.89089,13.44418 -4.67533,0.65028 -6.3646,0.62085 -11.52473,-0.20074 z"
       id="path1958"
       inkscape:connector-curvature="0" />
  </g>
</svg>
